<mxfile host="app.diagrams.net" agent="Mozilla/5.0 (Windows NT 10.0; Win64; x64) AppleWebKit/537.36 (KHTML, like Gecko) Chrome/130.0.0.0 Safari/537.36" version="24.8.4">
  <diagram name="Page-1" id="EyDVrTZKss8ocU8R7rJT">
    <mxGraphModel dx="1050" dy="557" grid="1" gridSize="10" guides="1" tooltips="1" connect="1" arrows="1" fold="1" page="1" pageScale="1" pageWidth="827" pageHeight="1169" math="0" shadow="0">
      <root>
        <mxCell id="0" />
        <mxCell id="1" parent="0" />
        <mxCell id="7XMI4PwckwkuUXCLdElN-1" value="" style="ellipse;html=1;shape=startState;fillColor=#000000;strokeColor=#ff0000;" vertex="1" parent="1">
          <mxGeometry x="400" y="150" width="30" height="30" as="geometry" />
        </mxCell>
        <mxCell id="7XMI4PwckwkuUXCLdElN-2" value="" style="edgeStyle=orthogonalEdgeStyle;html=1;verticalAlign=bottom;endArrow=open;endSize=8;strokeColor=#ff0000;rounded=0;" edge="1" source="7XMI4PwckwkuUXCLdElN-1" parent="1">
          <mxGeometry relative="1" as="geometry">
            <mxPoint x="415" y="240" as="targetPoint" />
          </mxGeometry>
        </mxCell>
        <mxCell id="7XMI4PwckwkuUXCLdElN-9" value="" style="edgeStyle=orthogonalEdgeStyle;rounded=0;orthogonalLoop=1;jettySize=auto;html=1;" edge="1" parent="1" source="7XMI4PwckwkuUXCLdElN-3" target="7XMI4PwckwkuUXCLdElN-5">
          <mxGeometry relative="1" as="geometry" />
        </mxCell>
        <mxCell id="7XMI4PwckwkuUXCLdElN-3" value="Login" style="rounded=1;whiteSpace=wrap;html=1;" vertex="1" parent="1">
          <mxGeometry x="354" y="240" width="120" height="60" as="geometry" />
        </mxCell>
        <mxCell id="7XMI4PwckwkuUXCLdElN-10" value="" style="edgeStyle=orthogonalEdgeStyle;rounded=0;orthogonalLoop=1;jettySize=auto;html=1;" edge="1" parent="1" source="7XMI4PwckwkuUXCLdElN-5" target="7XMI4PwckwkuUXCLdElN-6">
          <mxGeometry relative="1" as="geometry" />
        </mxCell>
        <mxCell id="7XMI4PwckwkuUXCLdElN-5" value="success&amp;nbsp;&lt;div&gt;or fail&lt;/div&gt;" style="rhombus;whiteSpace=wrap;html=1;" vertex="1" parent="1">
          <mxGeometry x="374" y="360" width="80" height="80" as="geometry" />
        </mxCell>
        <mxCell id="7XMI4PwckwkuUXCLdElN-29" value="" style="edgeStyle=orthogonalEdgeStyle;rounded=0;orthogonalLoop=1;jettySize=auto;html=1;" edge="1" parent="1" source="7XMI4PwckwkuUXCLdElN-6" target="7XMI4PwckwkuUXCLdElN-7">
          <mxGeometry relative="1" as="geometry" />
        </mxCell>
        <mxCell id="7XMI4PwckwkuUXCLdElN-6" value="Login successful" style="rounded=1;whiteSpace=wrap;html=1;" vertex="1" parent="1">
          <mxGeometry x="355" y="500" width="120" height="60" as="geometry" />
        </mxCell>
        <mxCell id="7XMI4PwckwkuUXCLdElN-14" value="" style="edgeStyle=orthogonalEdgeStyle;rounded=0;orthogonalLoop=1;jettySize=auto;html=1;" edge="1" parent="1" source="7XMI4PwckwkuUXCLdElN-7" target="7XMI4PwckwkuUXCLdElN-13">
          <mxGeometry relative="1" as="geometry" />
        </mxCell>
        <mxCell id="7XMI4PwckwkuUXCLdElN-16" value="" style="edgeStyle=orthogonalEdgeStyle;rounded=0;orthogonalLoop=1;jettySize=auto;html=1;" edge="1" parent="1" source="7XMI4PwckwkuUXCLdElN-7" target="7XMI4PwckwkuUXCLdElN-15">
          <mxGeometry relative="1" as="geometry" />
        </mxCell>
        <mxCell id="7XMI4PwckwkuUXCLdElN-7" value="Student or&amp;nbsp;&lt;div&gt;Admin&lt;/div&gt;" style="rhombus;whiteSpace=wrap;html=1;" vertex="1" parent="1">
          <mxGeometry x="375" y="620" width="80" height="80" as="geometry" />
        </mxCell>
        <mxCell id="7XMI4PwckwkuUXCLdElN-8" value="Login failed&lt;div&gt;try again&lt;/div&gt;" style="rounded=1;whiteSpace=wrap;html=1;" vertex="1" parent="1">
          <mxGeometry x="130" y="370" width="120" height="60" as="geometry" />
        </mxCell>
        <mxCell id="7XMI4PwckwkuUXCLdElN-11" value="" style="endArrow=none;html=1;rounded=0;exitX=1;exitY=0.5;exitDx=0;exitDy=0;entryX=0;entryY=0.5;entryDx=0;entryDy=0;" edge="1" parent="1" source="7XMI4PwckwkuUXCLdElN-8" target="7XMI4PwckwkuUXCLdElN-5">
          <mxGeometry width="50" height="50" relative="1" as="geometry">
            <mxPoint x="390" y="520" as="sourcePoint" />
            <mxPoint x="440" y="470" as="targetPoint" />
          </mxGeometry>
        </mxCell>
        <mxCell id="7XMI4PwckwkuUXCLdElN-12" value="" style="endArrow=classic;html=1;rounded=0;exitX=0.5;exitY=0;exitDx=0;exitDy=0;entryX=0;entryY=0.5;entryDx=0;entryDy=0;" edge="1" parent="1" source="7XMI4PwckwkuUXCLdElN-8" target="7XMI4PwckwkuUXCLdElN-3">
          <mxGeometry width="50" height="50" relative="1" as="geometry">
            <mxPoint x="390" y="520" as="sourcePoint" />
            <mxPoint x="440" y="470" as="targetPoint" />
            <Array as="points">
              <mxPoint x="190" y="270" />
            </Array>
          </mxGeometry>
        </mxCell>
        <mxCell id="7XMI4PwckwkuUXCLdElN-24" value="" style="edgeStyle=orthogonalEdgeStyle;rounded=0;orthogonalLoop=1;jettySize=auto;html=1;" edge="1" parent="1" source="7XMI4PwckwkuUXCLdElN-13" target="7XMI4PwckwkuUXCLdElN-23">
          <mxGeometry relative="1" as="geometry" />
        </mxCell>
        <mxCell id="7XMI4PwckwkuUXCLdElN-13" value="Logged in as Student" style="rounded=1;whiteSpace=wrap;html=1;" vertex="1" parent="1">
          <mxGeometry x="570" y="770" width="120" height="60" as="geometry" />
        </mxCell>
        <mxCell id="7XMI4PwckwkuUXCLdElN-18" value="" style="edgeStyle=orthogonalEdgeStyle;rounded=0;orthogonalLoop=1;jettySize=auto;html=1;" edge="1" parent="1" source="7XMI4PwckwkuUXCLdElN-15" target="7XMI4PwckwkuUXCLdElN-17">
          <mxGeometry relative="1" as="geometry" />
        </mxCell>
        <mxCell id="7XMI4PwckwkuUXCLdElN-15" value="Logged in as Admin" style="rounded=1;whiteSpace=wrap;html=1;" vertex="1" parent="1">
          <mxGeometry x="140" y="760" width="120" height="60" as="geometry" />
        </mxCell>
        <mxCell id="7XMI4PwckwkuUXCLdElN-20" value="" style="edgeStyle=orthogonalEdgeStyle;rounded=0;orthogonalLoop=1;jettySize=auto;html=1;" edge="1" parent="1" source="7XMI4PwckwkuUXCLdElN-17" target="7XMI4PwckwkuUXCLdElN-19">
          <mxGeometry relative="1" as="geometry" />
        </mxCell>
        <mxCell id="7XMI4PwckwkuUXCLdElN-17" value="View Student&#39;s Record" style="whiteSpace=wrap;html=1;rounded=1;" vertex="1" parent="1">
          <mxGeometry x="140" y="900" width="120" height="60" as="geometry" />
        </mxCell>
        <mxCell id="7XMI4PwckwkuUXCLdElN-22" value="" style="edgeStyle=orthogonalEdgeStyle;rounded=0;orthogonalLoop=1;jettySize=auto;html=1;" edge="1" parent="1" source="7XMI4PwckwkuUXCLdElN-19" target="7XMI4PwckwkuUXCLdElN-21">
          <mxGeometry relative="1" as="geometry" />
        </mxCell>
        <mxCell id="7XMI4PwckwkuUXCLdElN-19" value="Update information" style="whiteSpace=wrap;html=1;rounded=1;" vertex="1" parent="1">
          <mxGeometry x="140" y="1040" width="120" height="60" as="geometry" />
        </mxCell>
        <mxCell id="7XMI4PwckwkuUXCLdElN-21" value="Generate Student Report" style="whiteSpace=wrap;html=1;rounded=1;" vertex="1" parent="1">
          <mxGeometry x="140" y="1180" width="120" height="60" as="geometry" />
        </mxCell>
        <mxCell id="7XMI4PwckwkuUXCLdElN-26" value="" style="edgeStyle=orthogonalEdgeStyle;rounded=0;orthogonalLoop=1;jettySize=auto;html=1;" edge="1" parent="1" source="7XMI4PwckwkuUXCLdElN-23" target="7XMI4PwckwkuUXCLdElN-25">
          <mxGeometry relative="1" as="geometry" />
        </mxCell>
        <mxCell id="7XMI4PwckwkuUXCLdElN-23" value="Browse courses" style="whiteSpace=wrap;html=1;rounded=1;" vertex="1" parent="1">
          <mxGeometry x="570" y="900" width="120" height="60" as="geometry" />
        </mxCell>
        <mxCell id="7XMI4PwckwkuUXCLdElN-28" value="" style="edgeStyle=orthogonalEdgeStyle;rounded=0;orthogonalLoop=1;jettySize=auto;html=1;" edge="1" parent="1" source="7XMI4PwckwkuUXCLdElN-25" target="7XMI4PwckwkuUXCLdElN-27">
          <mxGeometry relative="1" as="geometry" />
        </mxCell>
        <mxCell id="7XMI4PwckwkuUXCLdElN-25" value="Enroll in corses" style="whiteSpace=wrap;html=1;rounded=1;" vertex="1" parent="1">
          <mxGeometry x="570" y="1040" width="120" height="60" as="geometry" />
        </mxCell>
        <mxCell id="7XMI4PwckwkuUXCLdElN-27" value="View Course History" style="whiteSpace=wrap;html=1;rounded=1;" vertex="1" parent="1">
          <mxGeometry x="570" y="1180" width="120" height="60" as="geometry" />
        </mxCell>
        <mxCell id="7XMI4PwckwkuUXCLdElN-31" value="" style="endArrow=none;html=1;rounded=0;" edge="1" parent="1">
          <mxGeometry width="50" height="50" relative="1" as="geometry">
            <mxPoint x="390" y="1360" as="sourcePoint" />
            <mxPoint x="200" y="1240" as="targetPoint" />
            <Array as="points">
              <mxPoint x="390" y="1320" />
              <mxPoint x="200" y="1320" />
            </Array>
          </mxGeometry>
        </mxCell>
        <mxCell id="7XMI4PwckwkuUXCLdElN-32" value="" style="endArrow=none;html=1;rounded=0;" edge="1" parent="1">
          <mxGeometry width="50" height="50" relative="1" as="geometry">
            <mxPoint x="390" y="1360" as="sourcePoint" />
            <mxPoint x="630" y="1240" as="targetPoint" />
            <Array as="points">
              <mxPoint x="390" y="1320" />
              <mxPoint x="630" y="1320" />
            </Array>
          </mxGeometry>
        </mxCell>
        <mxCell id="7XMI4PwckwkuUXCLdElN-34" value="Logout" style="rounded=1;whiteSpace=wrap;html=1;" vertex="1" parent="1">
          <mxGeometry x="335" y="1360" width="120" height="60" as="geometry" />
        </mxCell>
        <mxCell id="7XMI4PwckwkuUXCLdElN-35" value="" style="ellipse;html=1;shape=endState;fillColor=#000000;strokeColor=#ff0000;" vertex="1" parent="1">
          <mxGeometry x="380" y="1480" width="30" height="30" as="geometry" />
        </mxCell>
        <mxCell id="7XMI4PwckwkuUXCLdElN-36" value="" style="endArrow=none;html=1;rounded=0;exitX=0.5;exitY=1;exitDx=0;exitDy=0;entryX=0.5;entryY=0;entryDx=0;entryDy=0;" edge="1" parent="1" source="7XMI4PwckwkuUXCLdElN-34" target="7XMI4PwckwkuUXCLdElN-35">
          <mxGeometry width="50" height="50" relative="1" as="geometry">
            <mxPoint x="390" y="1380" as="sourcePoint" />
            <mxPoint x="440" y="1330" as="targetPoint" />
          </mxGeometry>
        </mxCell>
      </root>
    </mxGraphModel>
  </diagram>
</mxfile>
